{
  "source": "C:\\Users\\Peter\\Desktop\\stuff\\MIUN\\quantitative_research\\video_compression\\videos\\BVI-HD\\BVI-HD_CDVL_videos\\ORIG\\CarpetCircleFast_1920x1080_60fps.mp4",
  "output": "C:\\Users\\Peter\\Desktop\\stuff\\MIUN\\quantitative_research\\video_compression\\compressed_videos\\BVI-HD\\h264\\4\\CarpetCircleFast_1920x1080_60fps_h264.mp4",
  "codec": "h264",
  "ok": "Input #0, mov,mp4,m4a,3gp,3g2,mj2, from 'C:\\Users\\Peter\\Desktop\\stuff\\MIUN\\quantitative_research\\video_compression\\videos\\BVI-HD\\BVI-HD_CDVL_videos\\ORIG\\CarpetCircleFast_1920x1080_60fps.mp4':\n  Metadata:\n    major_brand     : isom\n    minor_version   : 512\n    compatible_brands: isomiso2avc1mp41\n    encoder         : Lavf54.28.101\n  Duration: 00:00:05.00, start: 0.000000, bitrate: 324759 kb/s\n  Stream #0:0[0x1](und): Video: h264 (High 4:4:4 Predictive) (avc1 / 0x31637661), yuv420p(progressive), 1920x1080, 324754 kb/s, 60 fps, 60 tbr, 60 tbn (default)\n    Metadata:\n      handler_name    : VideoHandler\n      vendor_id       : [0][0][0][0]\n[out#0/mp4 @ 0000018873419b40] Codec AVOption b:a (set bitrate (in bits/s)) has not been used for any stream. The most likely reason is either wrong type (e.g. a video option with no video streams) or that it is a private option of some decoder which was not actually used for any stream.\nStream mapping:\n  Stream #0:0 -> #0:0 (h264 (native) -> h264 (libx264))\nPress [q] to stop, [?] for help\n[libx264 @ 0000018873ddd300] using cpu capabilities: MMX2 SSE2Fast SSSE3 SSE4.2 AVX FMA3 BMI2 AVX2\n[libx264 @ 0000018873ddd300] profile High, level 5.0, 4:2:0, 8-bit\n[libx264 @ 0000018873ddd300] 264 - core 165 r3222 b35605a - H.264/MPEG-4 AVC codec - Copyleft 2003-2025 - http://www.videolan.org/x264.html - options: cabac=1 ref=5 deblock=1:0:0 analyse=0x3:0x113 me=hex subme=8 psy=1 psy_rd=1.00:0.00 mixed_ref=1 me_range=16 chroma_me=1 trellis=2 8x8dct=1 cqm=0 deadzone=21,11 fast_pskip=1 chroma_qp_offset=-2 threads=18 lookahead_threads=3 sliced_threads=0 nr=0 decimate=1 interlaced=0 bluray_compat=0 constrained_intra=0 bframes=3 b_pyramid=2 b_adapt=1 b_bias=0 direct=3 weightb=1 open_gop=0 weightp=2 keyint=250 keyint_min=25 scenecut=40 intra_refresh=0 rc_lookahead=50 rc=cbr mbtree=1 bitrate=4000 ratetol=1.0 qcomp=0.60 qpmin=0 qpmax=69 qpstep=4 vbv_maxrate=4000 vbv_bufsize=4000 nal_hrd=none filler=0 ip_ratio=1.40 aq=1:1.00\nOutput #0, mp4, to 'C:\\Users\\Peter\\Desktop\\stuff\\MIUN\\quantitative_research\\video_compression\\compressed_videos\\BVI-HD\\h264\\4\\CarpetCircleFast_1920x1080_60fps_h264.mp4':\n  Metadata:\n    major_brand     : isom\n    minor_version   : 512\n    compatible_brands: isomiso2avc1mp41\n    encoder         : Lavf62.3.100\n  Stream #0:0(und): Video: h264 (avc1 / 0x31637661), yuv420p(tv, progressive), 1920x1080, q=2-31, 4000 kb/s, 60 fps, 15360 tbn (default)\n    Metadata:\n      encoder         : Lavc62.11.100 libx264\n      handler_name    : VideoHandler\n      vendor_id       : [0][0][0][0]\n    Side data:\n      cpb: bitrate max/min/avg: 4000000/0/4000000 buffer size: 4000000 vbv_delay: N/A\nframe=    0 fps=0.0 q=0.0 size=       0KiB time=N/A bitrate=N/A speed=N/A elapsed=0:00:00.51    \nframe=    0 fps=0.0 q=0.0 size=       0KiB time=N/A bitrate=N/A speed=N/A elapsed=0:00:01.17    \nframe=    0 fps=0.0 q=0.0 size=       0KiB time=N/A bitrate=N/A speed=N/A elapsed=0:00:01.72    \nframe=   18 fps=7.9 q=34.0 size=       0KiB time=00:00:00.20 bitrate=   1.9kbits/s speed=0.0882x elapsed=0:00:02.26    \nframe=   45 fps= 16 q=34.0 size=       0KiB time=00:00:00.71 bitrate=   0.5kbits/s speed=0.253x elapsed=0:00:02.83    \nframe=   62 fps= 18 q=36.0 size=     256KiB time=00:00:01.00 bitrate=2097.5kbits/s speed=0.296x elapsed=0:00:03.37    \nframe=   83 fps= 21 q=37.0 size=     256KiB time=00:00:01.30 bitrate=1613.5kbits/s speed=0.33x elapsed=0:00:03.93    \nframe=   87 fps= 19 q=37.0 size=     512KiB time=00:00:01.41 bitrate=2961.0kbits/s speed=0.312x elapsed=0:00:04.53    \nframe=  102 fps= 20 q=37.0 size=     512KiB time=00:00:01.58 bitrate=2649.3kbits/s speed=0.312x elapsed=0:00:05.07    \nframe=  123 fps= 22 q=35.0 size=     768KiB time=00:00:02.01 bitrate=3119.9kbits/s speed=0.356x elapsed=0:00:05.65    \nframe=  149 fps= 24 q=35.0 size=     768KiB time=00:00:02.40 bitrate=2621.6kbits/s speed=0.387x elapsed=0:00:06.20    \nframe=  175 fps= 26 q=34.0 size=     768KiB time=00:00:02.83 bitrate=2220.6kbits/s speed=0.419x elapsed=0:00:06.76    \nframe=  193 fps= 26 q=34.0 size=    1024KiB time=00:00:03.18 bitrate=2635.3kbits/s speed=0.427x elapsed=0:00:07.44    \nframe=  208 fps= 26 q=36.0 size=    1024KiB time=00:00:03.38 bitrate=2479.5kbits/s speed=0.42x elapsed=0:00:08.06    \nframe=  223 fps= 26 q=36.0 size=    1280KiB time=00:00:03.65 bitrate=2872.9kbits/s speed=0.422x elapsed=0:00:08.64    \nframe=  250 fps= 27 q=34.0 size=    1280KiB time=00:00:04.11 bitrate=2547.2kbits/s speed=0.445x elapsed=0:00:09.26    \nframe=  273 fps= 28 q=33.0 size=    1536KiB time=00:00:04.51 bitrate=2786.0kbits/s speed=0.459x elapsed=0:00:09.84    \n[mp4 @ 00000188739f00c0] Starting second pass: moving the moov atom to the beginning of the file\n[out#0/mp4 @ 0000018873419b40] video:1735KiB audio:0KiB subtitle:0KiB other streams:0KiB global headers:0KiB muxing overhead: 0.239954%\nframe=  300 fps= 29 q=-1.0 Lsize=    1739KiB time=00:00:04.96 bitrate=2868.5kbits/s speed=0.485x elapsed=0:00:10.23    \n[libx264 @ 0000018873ddd300] frame I:2     Avg QP:30.84  size: 25239\n[libx264 @ 0000018873ddd300] frame P:91    Avg QP:31.63  size: 14572\n[libx264 @ 0000018873ddd300] frame B:207   Avg QP:33.18  size:  1929\n[libx264 @ 0000018873ddd300] consecutive B-frames:  5.0%  4.0% 15.0% 76.0%\n[libx264 @ 0000018873ddd300] mb I  I16..4: 45.2% 54.7%  0.1%\n[libx264 @ 0000018873ddd300] mb P  I16..4:  6.3% 10.4%  0.1%  P16..4: 36.6%  1.7%  2.9%  0.0%  0.0%    skip:42.0%\n[libx264 @ 0000018873ddd300] mb B  I16..4:  0.0%  0.1%  0.0%  B16..8: 21.7%  0.2%  0.0%  direct: 0.1%  skip:77.9%  L0:46.3% L1:53.4% BI: 0.4%\n[libx264 @ 0000018873ddd300] 8x8 transform intra:61.0% inter:99.1%\n[libx264 @ 0000018873ddd300] direct mvs  spatial:95.2% temporal:4.8%\n[libx264 @ 0000018873ddd300] coded y,uvDC,uvAC intra: 33.2% 34.1% 0.3% inter: 4.7% 5.3% 0.0%\n[libx264 @ 0000018873ddd300] i16 v,h,dc,p: 22% 30% 10% 39%\n[libx264 @ 0000018873ddd300] i8 v,h,dc,ddl,ddr,vr,hd,vl,hu:  8% 10%  9%  9% 13% 11% 18%  9% 13%\n[libx264 @ 0000018873ddd300] i4 v,h,dc,ddl,ddr,vr,hd,vl,hu:  4%  4%  2%  9% 24% 12% 28%  4% 12%\n[libx264 @ 0000018873ddd300] i8c dc,h,v,p: 68%  6% 18%  7%\n[libx264 @ 0000018873ddd300] Weighted P-Frames: Y:4.4% UV:4.4%\n[libx264 @ 0000018873ddd300] ref P L0: 60.4% 17.3% 13.3%  5.0%  3.9%  0.1%\n[libx264 @ 0000018873ddd300] ref B L0: 96.7%  2.0%  0.9%  0.4%\n[libx264 @ 0000018873ddd300] ref B L1: 99.7%  0.3%\n[libx264 @ 0000018873ddd300] kb/s:2841.32\n",
  "seconds": 10.459856271743774,
  "probe_out": {}
}